<svg width="42" height="42" viewBox="0 0 42 42" fill="none" xmlns="http://www.w3.org/2000/svg">
<rect width="42" height="42" rx="5" fill="#143E64"/>
<path d="M35.8173 23C35.8173 26.9162 29.4679 30.0909 21.6355 30.0909C13.8031 30.0909 7.4537 26.9162 7.4537 23C7.4537 19.0838 13.8031 15.9091 21.6355 15.9091C29.4679 15.9091 35.8173 19.0838 35.8173 23Z" fill="white"/>
<path d="M21.6356 36.0001C15.7101 31.7994 12.0498 29.3395 8.50945 25.8786L34.4167 26.1394C29.7704 30.0624 26.9583 32.2387 21.6356 36.0001Z" fill="white"/>
<path d="M21.6358 17.6818C21.6358 23.2298 17.932 27.7273 13.3631 27.7273C8.79416 27.7273 5.09033 23.2298 5.09033 17.6818C5.09033 12.1339 8.79416 7.63635 13.3631 7.63635C17.932 7.63635 21.6358 12.1339 21.6358 17.6818Z" fill="white"/>
<path d="M38.1812 17.6818C38.1812 23.2298 34.4774 27.7273 29.9085 27.7273C25.3396 27.7273 21.6358 23.2298 21.6358 17.6818C21.6358 12.1339 25.3396 7.63635 29.9085 7.63635C34.4774 7.63635 38.1812 12.1339 38.1812 17.6818Z" fill="white"/>
<path d="M22.0253 11.6786C26.0237 15.0368 28.2442 18.9747 26.9849 20.4741C25.7255 21.9735 21.4633 20.4667 17.4649 17.1085C13.4664 13.7502 11.2459 9.81234 12.5053 8.31293C13.7646 6.81352 18.0269 8.32038 22.0253 11.6786Z" fill="white"/>
<path d="M21.4844 11.8818C25.4009 8.42838 29.6257 6.81944 30.9207 8.28813C32.2157 9.75682 30.0906 13.747 26.1741 17.2004C22.2576 20.6538 18.0328 22.2628 16.7378 20.7941C15.4427 19.3254 17.5679 15.3352 21.4844 11.8818Z" fill="white"/>
<rect x="19.7148" y="13.4384" width="3.87563" height="16.8084" fill="#143E64"/>
<rect x="30.0781" y="19.0412" width="3.87563" height="16.8084" transform="rotate(90 30.0781 19.0412)" fill="#143E64"/>
</svg>
