<svg width="191" height="191" viewBox="0 0 191 191" fill="none" xmlns="http://www.w3.org/2000/svg">
<rect width="191" height="191" rx="20" fill="#143E64"/>
<ellipse cx="96.1286" cy="124.429" rx="79.1286" ry="38.2" fill="white"/>
<path d="M147.972 120.46C147.972 130.324 124.761 135.343 96.129 135.343C67.497 135.343 44.2861 130.324 44.2861 120.46C44.2861 110.596 67.497 102.6 96.129 102.6C124.761 102.6 147.972 110.596 147.972 120.46Z" fill="#143E64"/>
<path fill-rule="evenodd" clip-rule="evenodd" d="M132.28 68.6517C110.529 60.458 96.5009 32.6349 94.8029 3H94.6252C94.3387 33.6715 77.3208 59.464 54.1318 67.5572C77.5188 75.7196 94.6289 101.885 94.6289 132.901L94.6288 133H94.629L94.629 132.901C94.629 103.157 110.364 77.8744 132.28 68.6517Z" fill="white"/>
<path d="M132.28 68.6517L132.474 69.1126L133.63 68.626L132.457 68.1838L132.28 68.6517ZM94.8029 3L95.3021 2.9714L95.275 2.5H94.8029V3ZM94.6252 3V2.5H94.1299L94.1252 2.99533L94.6252 3ZM54.1318 67.5572L53.9671 67.0852L52.6145 67.5572L53.9671 68.0293L54.1318 67.5572ZM94.6289 132.901L95.1289 132.902V132.901H94.6289ZM94.6288 133L94.1288 133L94.1285 133.5H94.6288V133ZM94.629 133V133.5H95.1293L95.129 133L94.629 133ZM94.629 132.901L94.129 132.901L94.129 132.902L94.629 132.901ZM132.457 68.1838C121.724 64.1409 112.859 55.2391 106.46 43.625C100.062 32.0135 96.1473 17.7232 95.3021 2.9714L94.3037 3.0286C95.1565 17.9117 99.1055 32.3504 105.584 44.1076C112.061 55.8622 121.085 64.9689 132.104 69.1196L132.457 68.1838ZM94.6252 3.5H94.8029V2.5H94.6252V3.5ZM54.2966 68.0293C77.7255 59.8523 94.8371 33.8403 95.1252 3.00467L94.1252 2.99533C93.8403 33.5028 76.916 59.0757 53.9671 67.0852L54.2966 68.0293ZM95.1289 132.901C95.1289 101.719 77.9255 75.332 54.2966 67.0852L53.9671 68.0293C77.112 76.1072 94.1289 102.05 94.1289 132.901H95.1289ZM95.1288 133L95.1289 132.902L94.1289 132.901L94.1288 133L95.1288 133ZM94.629 132.5H94.6288V133.5H94.629V132.5ZM94.129 132.902L94.129 133L95.129 133L95.129 132.901L94.129 132.902ZM132.086 68.1909C109.95 77.5061 94.129 102.996 94.129 132.901H95.129C95.129 103.318 110.778 78.2427 132.474 69.1126L132.086 68.1909Z" fill="#143E64"/>
</svg>
