<svg width="187" height="187" viewBox="0 0 187 187" fill="none" xmlns="http://www.w3.org/2000/svg">
<rect width="187" height="187" rx="20" fill="#143E64"/>
<circle cx="90.7861" cy="95.4571" r="58.7714" fill="white"/>
<circle cx="90.7857" cy="95.4572" r="37.4" fill="#143E64"/>
<rect x="45.5381" y="42.0286" width="21.3714" height="24.5771" rx="2.5" transform="rotate(41.2204 45.5381 42.0286)" fill="white"/>
<rect x="134.167" y="117.629" width="21.3714" height="24.5771" rx="2.5" transform="rotate(41.2204 134.167 117.629)" fill="white"/>
<rect x="31.9717" y="134.264" width="21.3714" height="24.5819" rx="2.5" transform="rotate(-39.6437 31.9717 134.264)" fill="white"/>
<rect x="120.172" y="55.6639" width="21.3714" height="24.5819" rx="2.5" transform="rotate(-39.6437 120.172 55.6639)" fill="white"/>
<rect x="78.9717" y="165" width="21.3714" height="24.5819" rx="2.5" transform="rotate(-90 78.9717 165)" fill="white"/>
<rect x="77.4287" y="47.3714" width="21.3714" height="24.5819" rx="2.5" transform="rotate(-90 77.4287 47.3714)" fill="white"/>
<rect x="24" y="84.7714" width="21.3714" height="24.5819" rx="2.5" fill="white"/>
<rect x="136.2" y="84.7714" width="21.3714" height="24.5819" rx="2.5" fill="white"/>
<mask id="path-12-outside-1_158_134" maskUnits="userSpaceOnUse" x="86.0076" y="85.2825" width="100.772" height="102.097" fill="black">
<rect fill="white" x="86.0076" y="85.2825" width="100.772" height="102.097"/>
<path fill-rule="evenodd" clip-rule="evenodd" d="M153.664 113.815C157.326 116.651 160.145 120.29 161.992 124.348L165.064 123.648C166.41 123.341 167.75 124.184 168.057 125.53L169.555 132.102C169.861 133.449 169.019 134.789 167.673 135.095L164.527 135.812C164.546 138.505 164.178 141.225 163.393 143.89L164.991 144.697C166.224 145.32 166.718 146.824 166.095 148.056L163.055 154.073C162.433 155.305 160.929 155.8 159.697 155.177L157.807 154.222C156.102 156.223 154.147 157.945 152.013 159.363L153.052 161.939C153.568 163.219 152.949 164.676 151.669 165.192L145.42 167.714C144.139 168.231 142.682 167.612 142.166 166.331L141.096 163.681C137.313 164.319 133.377 164.188 129.534 163.207L128.041 166.16C127.419 167.393 125.915 167.887 124.683 167.264L118.666 164.224C117.433 163.602 116.939 162.098 117.562 160.866L119.01 157.998C116.131 155.721 113.786 152.943 112.037 149.857L108.064 150.763C106.718 151.069 105.378 150.227 105.071 148.881L103.573 142.308C103.267 140.962 104.109 139.622 105.455 139.315L108.499 138.621C108.216 135.647 108.407 132.607 109.107 129.616L107.217 128.661C105.985 128.039 105.491 126.535 106.113 125.303L109.153 119.286C109.776 118.054 111.28 117.559 112.512 118.182L114.11 118.99C115.796 116.77 117.775 114.854 119.963 113.269L118.717 110.183C118.201 108.903 118.82 107.446 120.1 106.929L126.349 104.408C127.63 103.891 129.087 104.51 129.603 105.79L130.704 108.518C134.729 107.673 138.957 107.705 143.086 108.713L144.589 105.739C145.212 104.507 146.715 104.013 147.948 104.635L153.964 107.675C155.197 108.298 155.691 109.802 155.068 111.034L153.664 113.815Z"/>
</mask>
<path fill-rule="evenodd" clip-rule="evenodd" d="M153.664 113.815C157.326 116.651 160.145 120.29 161.992 124.348L165.064 123.648C166.41 123.341 167.75 124.184 168.057 125.53L169.555 132.102C169.861 133.449 169.019 134.789 167.673 135.095L164.527 135.812C164.546 138.505 164.178 141.225 163.393 143.89L164.991 144.697C166.224 145.32 166.718 146.824 166.095 148.056L163.055 154.073C162.433 155.305 160.929 155.8 159.697 155.177L157.807 154.222C156.102 156.223 154.147 157.945 152.013 159.363L153.052 161.939C153.568 163.219 152.949 164.676 151.669 165.192L145.42 167.714C144.139 168.231 142.682 167.612 142.166 166.331L141.096 163.681C137.313 164.319 133.377 164.188 129.534 163.207L128.041 166.16C127.419 167.393 125.915 167.887 124.683 167.264L118.666 164.224C117.433 163.602 116.939 162.098 117.562 160.866L119.01 157.998C116.131 155.721 113.786 152.943 112.037 149.857L108.064 150.763C106.718 151.069 105.378 150.227 105.071 148.881L103.573 142.308C103.267 140.962 104.109 139.622 105.455 139.315L108.499 138.621C108.216 135.647 108.407 132.607 109.107 129.616L107.217 128.661C105.985 128.039 105.491 126.535 106.113 125.303L109.153 119.286C109.776 118.054 111.28 117.559 112.512 118.182L114.11 118.99C115.796 116.77 117.775 114.854 119.963 113.269L118.717 110.183C118.201 108.903 118.82 107.446 120.1 106.929L126.349 104.408C127.63 103.891 129.087 104.51 129.603 105.79L130.704 108.518C134.729 107.673 138.957 107.705 143.086 108.713L144.589 105.739C145.212 104.507 146.715 104.013 147.948 104.635L153.964 107.675C155.197 108.298 155.691 109.802 155.068 111.034L153.664 113.815Z" fill="white"/>
<path d="M161.992 124.348L157.441 126.42L159.13 130.128L163.103 129.223L161.992 124.348ZM153.664 113.815L149.201 111.56L147.34 115.242L150.602 117.768L153.664 113.815ZM165.064 123.648L163.953 118.773L163.953 118.773L165.064 123.648ZM168.057 125.53L163.182 126.641L163.182 126.641L168.057 125.53ZM169.555 132.102L174.43 130.991L174.43 130.991L169.555 132.102ZM167.673 135.095L166.562 130.22L166.562 130.22L167.673 135.095ZM164.527 135.812L163.416 130.937L159.497 131.83L159.527 135.849L164.527 135.812ZM163.393 143.89L158.597 142.479L157.421 146.474L161.139 148.353L163.393 143.89ZM164.991 144.697L162.737 149.16L164.991 144.697ZM159.697 155.177L157.442 159.64L159.697 155.177ZM157.807 154.222L160.062 149.76L156.552 147.986L154.001 150.979L157.807 154.222ZM152.013 159.363L149.245 155.199L145.851 157.455L147.376 161.234L152.013 159.363ZM153.052 161.939L148.415 163.81L148.415 163.81L153.052 161.939ZM151.669 165.192L149.798 160.556L149.798 160.556L151.669 165.192ZM145.42 167.714L147.291 172.351L147.291 172.351L145.42 167.714ZM142.166 166.331L146.803 164.46L146.803 164.46L142.166 166.331ZM141.096 163.681L145.733 161.81L144.229 158.082L140.265 158.75L141.096 163.681ZM129.534 163.207L130.77 158.362L126.881 157.37L125.071 160.952L129.534 163.207ZM128.041 166.16L123.579 163.906L128.041 166.16ZM117.562 160.866L113.099 158.611L117.562 160.866ZM119.01 157.998L123.473 160.253L125.314 156.609L122.112 154.077L119.01 157.998ZM112.037 149.857L116.388 147.392L114.554 144.155L110.926 144.982L112.037 149.857ZM108.064 150.763L106.953 145.888L106.953 145.888L108.064 150.763ZM105.071 148.881L109.946 147.77L109.946 147.77L105.071 148.881ZM103.573 142.308L108.448 141.197L108.448 141.197L103.573 142.308ZM105.455 139.315L106.566 144.19L106.566 144.19L105.455 139.315ZM108.499 138.621L109.61 143.496L113.891 142.521L113.476 138.149L108.499 138.621ZM109.107 129.616L113.975 130.756L114.872 126.927L111.362 125.154L109.107 129.616ZM114.11 118.99L111.856 123.452L115.573 125.331L118.092 122.014L114.11 118.99ZM119.963 113.269L122.895 117.319L126.063 115.025L124.599 111.398L119.963 113.269ZM118.717 110.183L114.08 112.054L114.08 112.054L118.717 110.183ZM120.1 106.929L118.229 102.292L118.229 102.292L120.1 106.929ZM126.349 104.408L124.478 99.7707L124.478 99.7707L126.349 104.408ZM129.603 105.79L134.24 103.919L134.24 103.919L129.603 105.79ZM130.704 108.518L126.067 110.389L127.633 114.271L131.73 113.411L130.704 108.518ZM143.086 108.713L141.9 113.571L145.758 114.513L147.549 110.968L143.086 108.713ZM147.948 104.635L150.202 100.173L147.948 104.635ZM153.964 107.675L151.71 112.138L153.964 107.675ZM166.543 122.276C164.368 117.499 161.046 113.207 156.725 109.861L150.602 117.768C153.607 120.094 155.922 123.081 157.441 126.42L166.543 122.276ZM163.953 118.773L160.881 119.473L163.103 129.223L166.175 128.523L163.953 118.773ZM172.932 124.419C172.011 120.38 167.991 117.852 163.953 118.773L166.175 128.523C164.828 128.83 163.488 127.987 163.182 126.641L172.932 124.419ZM174.43 130.991L172.932 124.419L163.182 126.641L164.68 133.213L174.43 130.991ZM168.784 139.97C172.822 139.05 175.35 135.03 174.43 130.991L164.68 133.213C164.373 131.867 165.215 130.527 166.562 130.22L168.784 139.97ZM165.638 140.687L168.784 139.97L166.562 130.22L163.416 130.937L165.638 140.687ZM168.19 145.302C169.115 142.158 169.55 138.95 169.527 135.776L159.527 135.849C159.543 138.059 159.24 140.291 158.597 142.479L168.19 145.302ZM161.139 148.353L162.737 149.16L167.246 140.235L165.648 139.427L161.139 148.353ZM162.737 149.16C161.504 148.538 161.01 147.034 161.633 145.801L170.558 150.311C172.426 146.614 170.943 142.103 167.246 140.235L162.737 149.16ZM161.633 145.801L158.593 151.818L167.518 156.328L170.558 150.311L161.633 145.801ZM158.593 151.818C159.215 150.586 160.719 150.092 161.951 150.714L157.442 159.64C161.139 161.508 165.65 160.025 167.518 156.328L158.593 151.818ZM161.951 150.714L160.062 149.76L155.552 158.685L157.442 159.64L161.951 150.714ZM154.78 163.527C157.295 161.856 159.602 159.826 161.613 157.465L154.001 150.979C152.603 152.621 150.998 154.034 149.245 155.199L154.78 163.527ZM157.689 160.068L156.649 157.492L147.376 161.234L148.415 163.81L157.689 160.068ZM153.54 169.829C157.381 168.279 159.238 163.909 157.689 160.068L148.415 163.81C147.898 162.529 148.517 161.072 149.798 160.556L153.54 169.829ZM147.291 172.351L153.54 169.829L149.798 160.556L143.549 163.077L147.291 172.351ZM137.529 168.202C139.079 172.043 143.449 173.901 147.291 172.351L143.549 163.077C144.829 162.561 146.286 163.18 146.803 164.46L137.529 168.202ZM136.46 165.552L137.529 168.202L146.803 164.46L145.733 161.81L136.46 165.552ZM128.297 168.052C132.832 169.209 137.473 169.363 141.928 168.611L140.265 158.75C137.153 159.275 133.922 159.167 130.77 158.362L128.297 168.052ZM132.504 168.415L133.996 165.462L125.071 160.952L123.579 163.906L132.504 168.415ZM122.428 171.727C126.125 173.595 130.636 172.112 132.504 168.415L123.579 163.906C124.201 162.673 125.705 162.179 126.937 162.802L122.428 171.727ZM116.411 168.687L122.428 171.727L126.937 162.802L120.921 159.762L116.411 168.687ZM113.099 158.611C111.231 162.308 112.714 166.819 116.411 168.687L120.921 159.762C122.153 160.384 122.647 161.888 122.025 163.12L113.099 158.611ZM114.548 155.744L113.099 158.611L122.025 163.12L123.473 160.253L114.548 155.744ZM107.687 152.322C109.747 155.958 112.512 159.234 115.909 161.92L122.112 154.077C119.751 152.209 117.825 149.929 116.388 147.392L107.687 152.322ZM109.175 155.638L113.148 154.732L110.926 144.982L106.953 145.888L109.175 155.638ZM100.196 149.992C101.117 154.03 105.137 156.558 109.175 155.638L106.953 145.888C108.3 145.581 109.64 146.423 109.946 147.77L100.196 149.992ZM98.6984 143.419L100.196 149.992L109.946 147.77L108.448 141.197L98.6984 143.419ZM104.344 134.44C100.306 135.36 97.778 139.38 98.6984 143.419L108.448 141.197C108.755 142.543 107.913 143.883 106.566 144.19L104.344 134.44ZM107.388 133.746L104.344 134.44L106.566 144.19L109.61 143.496L107.388 133.746ZM104.239 128.476C103.412 132.005 103.189 135.59 103.521 139.094L113.476 138.149C113.244 135.705 113.401 133.21 113.975 130.756L104.239 128.476ZM104.962 133.124L106.852 134.079L111.362 125.154L109.472 124.199L104.962 133.124ZM101.65 123.048C99.7826 126.745 101.265 131.256 104.962 133.124L109.472 124.199C110.704 124.821 111.199 126.325 110.576 127.557L101.65 123.048ZM104.69 117.031L101.65 123.048L110.576 127.557L113.616 121.541L104.69 117.031ZM114.767 113.719C111.07 111.851 106.558 113.334 104.69 117.031L113.616 121.541C112.993 122.773 111.489 123.267 110.257 122.645L114.767 113.719ZM116.365 114.527L114.767 113.719L110.257 122.645L111.856 123.452L116.365 114.527ZM117.03 109.22C114.451 111.088 112.117 113.348 110.128 115.966L118.092 122.014C119.476 120.192 121.099 118.62 122.895 117.319L117.03 109.22ZM114.08 112.054L115.326 115.14L124.599 111.398L123.354 108.312L114.08 112.054ZM118.229 102.292C114.388 103.842 112.53 108.213 114.08 112.054L123.354 108.312C123.871 109.592 123.251 111.049 121.971 111.566L118.229 102.292ZM124.478 99.7707L118.229 102.292L121.971 111.566L128.22 109.044L124.478 99.7707ZM134.24 103.919C132.69 100.078 128.32 98.2208 124.478 99.7707L128.22 109.044C126.94 109.561 125.483 108.942 124.966 107.661L134.24 103.919ZM135.34 106.647L134.24 103.919L124.966 107.661L126.067 110.389L135.34 106.647ZM144.272 103.856C139.4 102.666 134.416 102.63 129.677 103.624L131.73 113.411C135.042 112.716 138.514 112.744 141.9 113.571L144.272 103.856ZM140.126 103.485L138.624 106.459L147.549 110.968L149.052 107.994L140.126 103.485ZM150.202 100.173C146.505 98.3048 141.994 99.7876 140.126 103.485L149.052 107.994C148.429 109.227 146.925 109.721 145.693 109.098L150.202 100.173ZM156.219 103.213L150.202 100.173L145.693 109.098L151.71 112.138L156.219 103.213ZM159.531 113.289C161.399 109.592 159.916 105.081 156.219 103.213L151.71 112.138C150.477 111.515 149.983 110.012 150.606 108.779L159.531 113.289ZM158.126 116.069L159.531 113.289L150.606 108.779L149.201 111.56L158.126 116.069Z" fill="#143E64" mask="url(#path-12-outside-1_158_134)"/>
<circle cx="136.583" cy="136.117" r="13.1094" transform="rotate(26.8053 136.583 136.117)" fill="#143E64"/>
</svg>
