<svg width="43" height="43" viewBox="0 0 43 43" fill="none" xmlns="http://www.w3.org/2000/svg">
<rect width="42.15" height="42.15" rx="5" fill="#EBA928"/>
<path d="M16.527 13.3081C18.4373 12.5104 19.9732 11.1517 21.6621 9.36003C23.1902 11.1199 24.642 12.4872 26.5093 13.2937C27.9056 13.8969 29.3802 14.1385 31.0052 14.2521C31.8044 14.308 32.6965 14.3355 33.6913 14.3491C32.9324 21.1672 31.8237 25.5936 30.0993 28.7078C28.3661 31.8379 25.8739 33.8758 21.6827 35.5919C16.6976 33.8694 13.8056 31.9148 11.985 28.9111C10.1855 25.9421 9.17651 21.5418 9.02119 14.3527C10.1352 14.3406 11.1253 14.3135 12.0061 14.2522C13.6432 14.1384 15.1165 13.897 16.527 13.3081Z" stroke="white" stroke-width="6"/>
</svg>
